<svg width="256" height="256" viewBox="0 0 256 256" fill="none" xmlns="http://www.w3.org/2000/svg">
<rect x="6" y="6" width="244" height="244" rx="48" fill="black" stroke="white" stroke-width="2"/>
<path d="M51.4 171V87H91.12C100.4 87 108.56 88.72 115.6 92.16C122.64 95.6 128.12 100.44 132.04 106.68C136.04 112.92 138.04 120.36 138.04 129C138.04 137.56 136.04 145 132.04 151.32C128.12 157.56 122.64 162.4 115.6 165.84C108.56 169.28 100.4 171 91.12 171H51.4ZM75.16 152.04H90.16C94.96 152.04 99.12 151.16 102.64 149.4C106.24 147.56 109.04 144.92 111.04 141.48C113.04 137.96 114.04 133.8 114.04 129C114.04 124.12 113.04 119.96 111.04 116.52C109.04 113.08 106.24 110.48 102.64 108.72C99.12 106.88 94.96 105.96 90.16 105.96H75.16V152.04ZM144.569 171V156.12L176.009 126.72C178.249 124.64 179.889 122.8 180.929 121.2C182.049 119.6 182.769 118.16 183.089 116.88C183.489 115.52 183.689 114.28 183.689 113.16C183.689 110.44 182.769 108.32 180.929 106.8C179.169 105.28 176.489 104.52 172.889 104.52C169.849 104.52 167.009 105.2 164.369 106.56C161.729 107.92 159.569 109.96 157.889 112.68L140.249 102.84C143.369 97.56 147.889 93.32 153.809 90.12C159.729 86.92 166.809 85.32 175.049 85.32C181.529 85.32 187.209 86.36 192.089 88.44C196.969 90.52 200.769 93.48 203.489 97.32C206.289 101.16 207.689 105.68 207.689 110.88C207.689 113.6 207.329 116.32 206.609 119.04C205.889 121.68 204.489 124.52 202.409 127.56C200.409 130.52 197.409 133.84 193.409 137.52L168.449 160.56L164.489 152.16H209.969V171H144.569Z" fill="white"/>
</svg>
