<svg width="350" height="159" viewBox="0 0 350 159" fill="none" xmlns="http://www.w3.org/2000/svg">
<g filter="url(#filter0_f_1_59)">
<rect x="39" y="39" width="272" height="73" rx="12" fill="url(#paint0_linear_1_59)"/>
<rect x="39" y="39" width="272" height="73" rx="12" fill="url(#paint1_radial_1_59)" fill-opacity="0.02"/>
</g>
<g filter="url(#filter1_d_1_59)">
<rect x="39" y="33" width="272" height="73" rx="12" fill="url(#paint2_linear_1_59)" shape-rendering="crispEdges"/>
<rect x="39" y="33" width="272" height="73" rx="12" fill="url(#paint3_radial_1_59)" fill-opacity="0.02" shape-rendering="crispEdges"/>
</g>
<path d="M105.784 76V63.31H116.89V76H114.586V65.2H108.07V76H105.784ZM119.634 79.888V69.178C119.634 68.806 119.622 68.428 119.598 68.044C119.574 67.66 119.538 67.282 119.49 66.91H121.668L121.866 68.818H121.668C121.848 68.182 122.226 67.678 122.802 67.306C123.39 66.922 124.068 66.73 124.836 66.73C125.64 66.73 126.342 66.922 126.942 67.306C127.542 67.678 128.01 68.218 128.346 68.926C128.682 69.622 128.85 70.462 128.85 71.446C128.85 72.43 128.682 73.276 128.346 73.984C128.01 74.692 127.542 75.238 126.942 75.622C126.342 75.994 125.64 76.18 124.836 76.18C124.08 76.18 123.414 75.994 122.838 75.622C122.262 75.25 121.878 74.752 121.686 74.128H121.884V79.888H119.634ZM124.206 74.452C124.926 74.452 125.502 74.206 125.934 73.714C126.366 73.21 126.582 72.454 126.582 71.446C126.582 70.438 126.366 69.688 125.934 69.196C125.502 68.704 124.926 68.458 124.206 68.458C123.498 68.458 122.928 68.704 122.496 69.196C122.064 69.688 121.848 70.438 121.848 71.446C121.848 72.454 122.064 73.21 122.496 73.714C122.928 74.206 123.498 74.452 124.206 74.452ZM130.97 76V66.91H133.004V73.786H132.464L137.63 66.91H139.484V76H137.45V69.106H138.008L132.824 76H130.97ZM146.293 76.18C145.357 76.18 144.535 75.988 143.827 75.604C143.131 75.22 142.591 74.674 142.207 73.966C141.823 73.246 141.631 72.394 141.631 71.41C141.631 70.426 141.823 69.586 142.207 68.89C142.603 68.194 143.149 67.66 143.845 67.288C144.541 66.916 145.357 66.73 146.293 66.73C146.893 66.73 147.475 66.826 148.039 67.018C148.615 67.198 149.083 67.462 149.443 67.81L148.759 69.376C148.435 69.076 148.069 68.854 147.661 68.71C147.265 68.554 146.875 68.476 146.491 68.476C145.687 68.476 145.057 68.728 144.601 69.232C144.157 69.736 143.935 70.468 143.935 71.428C143.935 72.388 144.157 73.126 144.601 73.642C145.057 74.158 145.687 74.416 146.491 74.416C146.863 74.416 147.247 74.344 147.643 74.2C148.051 74.056 148.423 73.834 148.759 73.534L149.443 75.082C149.071 75.43 148.597 75.7 148.021 75.892C147.457 76.084 146.881 76.18 146.293 76.18ZM155.537 76.18C154.601 76.18 153.791 75.988 153.107 75.604C152.423 75.22 151.889 74.674 151.505 73.966C151.133 73.258 150.947 72.418 150.947 71.446C150.947 70.474 151.133 69.64 151.505 68.944C151.889 68.236 152.423 67.69 153.107 67.306C153.791 66.922 154.601 66.73 155.537 66.73C156.473 66.73 157.283 66.922 157.967 67.306C158.663 67.69 159.197 68.236 159.569 68.944C159.953 69.64 160.145 70.474 160.145 71.446C160.145 72.418 159.953 73.258 159.569 73.966C159.197 74.674 158.663 75.22 157.967 75.604C157.283 75.988 156.473 76.18 155.537 76.18ZM155.537 74.452C156.245 74.452 156.809 74.206 157.229 73.714C157.649 73.21 157.859 72.454 157.859 71.446C157.859 70.438 157.649 69.688 157.229 69.196C156.809 68.704 156.245 68.458 155.537 68.458C154.829 68.458 154.265 68.704 153.845 69.196C153.425 69.688 153.215 70.438 153.215 71.446C153.215 72.454 153.425 73.21 153.845 73.714C154.265 74.206 154.829 74.452 155.537 74.452ZM166.741 76.18C165.217 76.18 164.023 75.76 163.159 74.92C162.295 74.08 161.863 72.928 161.863 71.464C161.863 70.516 162.049 69.688 162.421 68.98C162.793 68.272 163.309 67.72 163.969 67.324C164.641 66.928 165.421 66.73 166.309 66.73C167.185 66.73 167.917 66.916 168.505 67.288C169.093 67.66 169.537 68.182 169.837 68.854C170.149 69.526 170.305 70.312 170.305 71.212V71.806H163.681V70.618H168.703L168.397 70.87C168.397 70.03 168.217 69.388 167.857 68.944C167.509 68.5 166.999 68.278 166.327 68.278C165.583 68.278 165.007 68.542 164.599 69.07C164.203 69.598 164.005 70.336 164.005 71.284V71.518C164.005 72.502 164.245 73.24 164.725 73.732C165.217 74.212 165.907 74.452 166.795 74.452C167.311 74.452 167.791 74.386 168.235 74.254C168.691 74.11 169.123 73.882 169.531 73.57L170.197 75.082C169.765 75.43 169.249 75.7 168.649 75.892C168.049 76.084 167.413 76.18 166.741 76.18ZM171.574 78.34V74.29H172.618C172.978 73.726 173.236 73.066 173.392 72.31C173.56 71.542 173.644 70.606 173.644 69.502V66.91H180.646V74.29H182.122V78.34H180.214V76H173.482V78.34H171.574ZM174.634 74.308H178.54V68.602H175.552V70.006C175.552 70.81 175.474 71.596 175.318 72.364C175.162 73.132 174.934 73.78 174.634 74.308ZM183.775 76V66.91H185.809V73.786H185.269L190.435 66.91H192.289V76H190.255V69.106H190.813L185.629 76H183.775ZM194.849 76V66.91H197.081V70.474H201.185V66.91H203.417V76H201.185V72.202H197.081V76H194.849ZM205.22 76L206.606 73.606C206.846 73.198 207.14 72.874 207.488 72.634C207.848 72.382 208.22 72.256 208.604 72.256H209L208.982 72.454C207.914 72.454 207.092 72.22 206.516 71.752C205.94 71.284 205.652 70.6 205.652 69.7C205.652 68.812 205.946 68.128 206.534 67.648C207.134 67.156 208.01 66.91 209.162 66.91H213.68V76H211.628V72.796H210.602C210.23 72.796 209.9 72.898 209.612 73.102C209.336 73.306 209.102 73.57 208.91 73.894L207.722 76H205.22ZM209.594 71.338H211.628V68.368H209.594C208.982 68.368 208.52 68.5 208.208 68.764C207.908 69.028 207.758 69.388 207.758 69.844C207.758 70.324 207.908 70.696 208.208 70.96C208.52 71.212 208.982 71.338 209.594 71.338ZM216.242 76V66.91H218.276V73.786H217.736L222.902 66.91H224.756V76H222.722V69.106H223.28L218.096 76H216.242ZM220.49 66.082C219.89 66.082 219.362 65.986 218.906 65.794C218.45 65.59 218.072 65.308 217.772 64.948C217.472 64.576 217.256 64.138 217.124 63.634L218.276 63.238C218.48 63.79 218.762 64.198 219.122 64.462C219.482 64.714 219.944 64.84 220.508 64.84C221.072 64.84 221.534 64.714 221.894 64.462C222.254 64.21 222.548 63.808 222.776 63.256L223.874 63.634C223.622 64.438 223.202 65.05 222.614 65.47C222.038 65.878 221.33 66.082 220.49 66.082ZM231.564 76.18C230.628 76.18 229.806 75.988 229.098 75.604C228.402 75.22 227.862 74.674 227.478 73.966C227.094 73.246 226.902 72.394 226.902 71.41C226.902 70.426 227.094 69.586 227.478 68.89C227.874 68.194 228.42 67.66 229.116 67.288C229.812 66.916 230.628 66.73 231.564 66.73C232.164 66.73 232.746 66.826 233.31 67.018C233.886 67.198 234.354 67.462 234.714 67.81L234.03 69.376C233.706 69.076 233.34 68.854 232.932 68.71C232.536 68.554 232.146 68.476 231.762 68.476C230.958 68.476 230.328 68.728 229.872 69.232C229.428 69.736 229.206 70.468 229.206 71.428C229.206 72.388 229.428 73.126 229.872 73.642C230.328 74.158 230.958 74.416 231.762 74.416C232.134 74.416 232.518 74.344 232.914 74.2C233.322 74.056 233.694 73.834 234.03 73.534L234.714 75.082C234.342 75.43 233.868 75.7 233.292 75.892C232.728 76.084 232.152 76.18 231.564 76.18ZM235.876 76L237.262 73.606C237.502 73.198 237.796 72.874 238.144 72.634C238.504 72.382 238.876 72.256 239.26 72.256H239.656L239.638 72.454C238.57 72.454 237.748 72.22 237.172 71.752C236.596 71.284 236.308 70.6 236.308 69.7C236.308 68.812 236.602 68.128 237.19 67.648C237.79 67.156 238.666 66.91 239.818 66.91H244.336V76H242.284V72.796H241.258C240.886 72.796 240.556 72.898 240.268 73.102C239.992 73.306 239.758 73.57 239.566 73.894L238.378 76H235.876ZM240.25 71.338H242.284V68.368H240.25C239.638 68.368 239.176 68.5 238.864 68.764C238.564 69.028 238.414 69.388 238.414 69.844C238.414 70.324 238.564 70.696 238.864 70.96C239.176 71.212 239.638 71.338 240.25 71.338Z" fill="white"/>
<path d="M286 55C292.075 55 297 50.0753 297 44C297 37.9247 292.075 33 286 33C279.925 33 275 37.9247 275 44C275 50.0753 279.925 55 286 55Z" fill="white"/>
<path d="M280.5 44.5504L283.8 47.8504L291.5 40.1504" stroke="#583B6E" stroke-width="1.5" stroke-linecap="round" stroke-linejoin="round"/>
<defs>
<filter id="filter0_f_1_59" x="0" y="0" width="350" height="151" filterUnits="userSpaceOnUse" color-interpolation-filters="sRGB">
<feFlood flood-opacity="0" result="BackgroundImageFix"/>
<feBlend mode="normal" in="SourceGraphic" in2="BackgroundImageFix" result="shape"/>
<feGaussianBlur stdDeviation="19.5" result="effect1_foregroundBlur_1_59"/>
</filter>
<filter id="filter1_d_1_59" x="6" y="20" width="338" height="139" filterUnits="userSpaceOnUse" color-interpolation-filters="sRGB">
<feFlood flood-opacity="0" result="BackgroundImageFix"/>
<feColorMatrix in="SourceAlpha" type="matrix" values="0 0 0 0 0 0 0 0 0 0 0 0 0 0 0 0 0 0 127 0" result="hardAlpha"/>
<feMorphology radius="7" operator="erode" in="SourceAlpha" result="effect1_dropShadow_1_59"/>
<feOffset dy="20"/>
<feGaussianBlur stdDeviation="20"/>
<feComposite in2="hardAlpha" operator="out"/>
<feColorMatrix type="matrix" values="0 0 0 0 0.0705882 0 0 0 0 0.0705882 0 0 0 0 0.0705882 0 0 0 0.4 0"/>
<feBlend mode="normal" in2="BackgroundImageFix" result="effect1_dropShadow_1_59"/>
<feBlend mode="normal" in="SourceGraphic" in2="effect1_dropShadow_1_59" result="shape"/>
</filter>
<linearGradient id="paint0_linear_1_59" x1="127.022" y1="46.4237" x2="294.526" y2="75.1995" gradientUnits="userSpaceOnUse">
<stop stop-color="#8A55B2"/>
<stop offset="1" stop-color="#8A55B2" stop-opacity="0.4"/>
</linearGradient>
<radialGradient id="paint1_radial_1_59" cx="0" cy="0" r="1" gradientUnits="userSpaceOnUse" gradientTransform="translate(39 75) scale(272 1020.95)">
<stop stop-color="white"/>
<stop offset="1" stop-color="white" stop-opacity="0"/>
<stop offset="1" stop-color="white"/>
</radialGradient>
<linearGradient id="paint2_linear_1_59" x1="127.022" y1="40.4237" x2="294.526" y2="69.1995" gradientUnits="userSpaceOnUse">
<stop stop-color="#A066CC"/>
<stop offset="1" stop-color="#551D80" stop-opacity="0.64"/>
</linearGradient>
<radialGradient id="paint3_radial_1_59" cx="0" cy="0" r="1" gradientUnits="userSpaceOnUse" gradientTransform="translate(39 69) scale(272 1020.95)">
<stop stop-color="white"/>
<stop offset="1" stop-color="white" stop-opacity="0"/>
<stop offset="1" stop-color="white"/>
</radialGradient>
</defs>
</svg>
