<svg width="67" height="55" viewBox="0 0 67 55" fill="none" xmlns="http://www.w3.org/2000/svg">
<path fill-rule="evenodd" clip-rule="evenodd" d="M4.6059 23.6771C22.591 15.9154 34.584 10.7983 40.5846 8.32604C57.7178 1.26713 61.2779 0.0409219 63.5983 0.000431715C64.1087 -0.00847364 65.2498 0.116813 65.989 0.710931C66.6132 1.21259 66.7849 1.89027 66.8671 2.3659C66.9492 2.84153 67.0516 3.92502 66.9702 4.77164C66.0418 14.4348 62.0244 37.8846 59.9805 48.7074C59.1157 53.287 57.4129 54.8225 55.7643 54.9727C52.1816 55.2993 49.4611 52.6274 45.991 50.3743C40.5611 46.8486 37.4936 44.6538 32.2229 41.2133C26.1318 37.2373 30.0804 35.052 33.5518 31.4806C34.4602 30.546 50.2457 16.3236 50.5512 15.0334C50.5894 14.872 50.6249 14.2705 50.2642 13.9529C49.9034 13.6353 49.371 13.7439 48.9868 13.8303C48.4422 13.9528 39.7679 19.632 22.9638 30.868C20.5016 32.5427 18.2714 33.3587 16.2733 33.3159C14.0705 33.2688 9.83318 32.0822 6.68317 31.068C2.81956 29.8239 -0.251159 29.1662 0.0162314 27.0534C0.155505 25.953 1.68539 24.8276 4.6059 23.6771Z" fill="white"/>
</svg>
